<?xml version="1.0" encoding="UTF-8" standalone="no"?>
<svg
   xmlns:dc="http://purl.org/dc/elements/1.1/"
   xmlns:cc="http://creativecommons.org/ns#"
   xmlns:rdf="http://www.w3.org/1999/02/22-rdf-syntax-ns#"
   xmlns:svg="http://www.w3.org/2000/svg"
   xmlns="http://www.w3.org/2000/svg"
   xmlns:sodipodi="http://sodipodi.sourceforge.net/DTD/sodipodi-0.dtd"
   xmlns:inkscape="http://www.inkscape.org/namespaces/inkscape"
   viewBox="20 20 321 321"
   id="svg2"
   version="1.1"
   inkscape:version="0.48.2 r9819"
   width="100%"
   height="100%"
   sodipodi:docname="vent_ventilation_level_timer.svg">
  <metadata
     id="metadata36">
    <rdf:RDF>
      <cc:Work
         rdf:about="">
        <dc:format>image/svg+xml</dc:format>
        <dc:type
           rdf:resource="http://purl.org/dc/dcmitype/StillImage" />
        <dc:title></dc:title>
      </cc:Work>
    </rdf:RDF>
  </metadata>
  <defs
     id="defs34" />
  <sodipodi:namedview
     pagecolor="#ffffff"
     bordercolor="#666666"
     borderopacity="1"
     objecttolerance="10"
     gridtolerance="10"
     guidetolerance="10"
     inkscape:pageopacity="0"
     inkscape:pageshadow="2"
     inkscape:window-width="897"
     inkscape:window-height="659"
     id="namedview32"
     showgrid="false"
     inkscape:zoom="1"
     inkscape:cx="201.21292"
     inkscape:cy="151.39775"
     inkscape:window-x="176"
     inkscape:window-y="588"
     inkscape:window-maximized="0"
     inkscape:current-layer="svg2" />
  <g
     fill="none"
     stroke="#000"
     stroke-width="10"
     id="g4">
    <path
       d="m157.116,146.943c-.497-1.854-2.006-3.064-3.371-2.697l-29.435,7.886c-1.363,.365-2.066,2.167-1.569,4.022l13.653,50.958c.499,1.855 2.007,3.064 3.373,2.698l29.435-7.888c1.363-.365 2.066-2.167 1.569-4.021l-13.655-50.958z"
       id="path6" />
    <path
       d="m158.531,112.915c-1.357,1.358-1.651,3.27-.652,4.268l21.547,21.549c.998,.998 2.911,.707 4.269-.652l37.304-37.304c1.357-1.358 1.649-3.27 .65-4.269l-21.548-21.546c-.998-.999-2.91-.708-4.268,.65l-37.302,37.304z"
       id="path8" />
    <path
       d="m128.355,128.829c1.855,.499 3.657-.206 4.022-1.57l7.888-29.436c.364-1.363-.843-2.873-2.697-3.369l-50.96-13.655c-1.856-.497-3.656,.207-4.022,1.57l-7.887,29.435c-.366,1.365 .841,2.875 2.697,3.372l50.959,13.653z"
       id="path10" />
  </g>
  <path
     style="fill:none;stroke:#000000;stroke-width:5"
     inkscape:connector-curvature="0"
     d="m 198.375,193.4555 c 0,-1.701 1.379,-3.0805 3.0805,-3.0805 h 99.089 c 1.701,0 3.0805,1.3795 3.0805,3.0805 v 99.089 c 0,1.701 -1.3795,3.0805 -3.0805,3.0805 h -99.089 c -1.7015,0 -3.0805,-1.3795 -3.0805,-3.0805 v -99.089 z"
     id="path4" />
  <g
     style="fill:#000000"
     transform="matrix(0.5,0,0,0.5,160.4585,152.7915)"
     id="g6">
    <path
       inkscape:connector-curvature="0"
       d="m 76.833,185.167 c 7.667,0 15.333,0 23,0 6.449,0 6.449,-10 0,-10 -7.667,0 -15.333,0 -23,0 -6.449,0 -6.449,10 0,10 z"
       id="path8-1" />
    <path
       inkscape:connector-curvature="0"
       d="m 261.833,185.167 c 7.5,0 15,0 22.5,0 6.448,0 6.448,-10 0,-10 -7.5,0 -15,0 -22.5,0 -6.448,0 -6.448,10 0,10 z"
       id="path10-7" />
    <path
       inkscape:connector-curvature="0"
       d="m 175.833,77.667 c 0,7.167 0,14.333 0,21.5 0,6.449 10,6.449 10,0 0,-7.167 0,-14.333 0,-21.5 0,-6.449 -10,-6.449 -10,0 z"
       id="path12" />
    <path
       inkscape:connector-curvature="0"
       d="m 175.833,261.167 c 0,7.333 0,14.667 0,22 0,6.448 10,6.448 10,0 0,-7.333 0,-14.667 0,-22 0,-6.448 -10,-6.448 -10,0 z"
       id="path14" />
    <path
       inkscape:connector-curvature="0"
       d="m 176.333,117.667 c 0,20.917 0,41.833 0,62.75 0,6.448 10,6.448 10,0 0,-20.917 0,-41.833 0,-62.75 0,-6.449 -10,-6.449 -10,0 z"
       id="path16" />
    <path
       inkscape:connector-curvature="0"
       d="m 178.297,184.202 c 9,9 18,18 27,27 4.563,4.564 11.635,-2.507 7.07,-7.07 -9,-9 -18,-18 -27,-27 -4.562,-4.564 -11.633,2.507 -7.07,7.07 z"
       id="path18" />
  </g>
  <path
     style="fill:#000000"
     inkscape:connector-curvature="0"
     id="path14-8"
     d="m 149.70275,134.44735 c 0.56,-2.09 1.12,-4.18 1.68,-6.27 -2.786,0.735 -5.571,1.471 -8.357,2.207 1.53,1.53 3.06,3.06 4.59,4.59 0.735,-2.786 1.471,-5.571 2.207,-8.357 -2.09,0.56 -4.18,1.12 -6.27,1.68 -2.631,0.705 -4.211,3.537 -3.492,6.15 0.726,2.639 3.52,4.197 6.15,3.492 2.09,-0.56 4.18,-1.12 6.27,-1.68 3.642,-0.976 4.853,-5.71 2.207,-8.357 -1.53,-1.53 -3.06,-3.06 -4.59,-4.59 -2.647,-2.646 -7.381,-1.436 -8.357,2.207 -0.56,2.09 -1.12,4.18 -1.68,6.27 -0.705,2.631 0.853,5.424 3.492,6.15 2.612,0.719 5.444,-0.86 6.15,-3.492 z" />
</svg>
