<?xml version="1.0" encoding="UTF-8" standalone="no"?>
<!-- Created with Inkscape (http://www.inkscape.org/) -->

<svg
   xmlns:dc="http://purl.org/dc/elements/1.1/"
   xmlns:cc="http://creativecommons.org/ns#"
   xmlns:rdf="http://www.w3.org/1999/02/22-rdf-syntax-ns#"
   xmlns:svg="http://www.w3.org/2000/svg"
   xmlns="http://www.w3.org/2000/svg"
   version="1.1"
   width="100%"
   height="100%"
   viewBox="20 20 321 321"
   id="svg2">
  <metadata
     id="metadata100">
    <rdf:RDF>
      <cc:Work
         rdf:about="">
        <dc:format>image/svg+xml</dc:format>
        <dc:type
           rdf:resource="http://purl.org/dc/dcmitype/StillImage" />
        <dc:title></dc:title>
      </cc:Work>
    </rdf:RDF>
  </metadata>
  <defs
     id="defs98" />
  <path
     d="m 264.86301,105.37378 -14.67465,0 0,145.84289 -145.94668,0 0,14.66422 160.62133,0 0,-160.50711 0,0 z m 10.45989,25.11911 0,145.84289 -145.94423,0 0,14.66422 160.62133,0 0,-160.50711 -14.6771,0 0,0 z M 70,238.84044 l 167.95744,0 L 237.95744,71 70,71 70,238.84044 z m 14.674658,-153.176218 138.605672,0 0,138.509558 -138.605672,0 0,-138.509558 z M 115.13699,204.10244 153.9775,165.28956 192.818,204.10244 203.19472,193.73311 164.35421,154.92022 203.19472,116.10733 192.818,105.738 153.9775,144.55089 115.13699,105.738 l -10.37672,10.36933 38.84051,38.81289 -38.84051,38.81289 10.37672,10.36933 0,0 z"
     id="path10"
     fill="#ffffff" stroke="#ffffff" />
</svg>
